<?xml version="1.0" standalone="no"?>
<!DOCTYPE svg PUBLIC "-//W3C//DTD SVG 20010904//EN"
 "http://www.w3.org/TR/2001/REC-SVG-20010904/DTD/svg10.dtd">
<svg version="1.0" xmlns="http://www.w3.org/2000/svg"
 width="512.000000pt" height="512.000000pt" viewBox="0 0 512.000000 512.000000"
 preserveAspectRatio="xMidYMid meet">

<g transform="translate(0.000000,512.000000) scale(0.100000,-0.100000)"
fill="#000000" stroke="none">
<path d="M180 2735 l0 -355 350 0 350 0 0 355 0 355 -350 0 -350 0 0 -355z
m440 5 l0 -90 -90 0 -90 0 0 90 0 90 90 0 90 0 0 -90z"/>
<path d="M2120 2915 l0 -175 440 0 440 0 0 175 0 175 -440 0 -440 0 0 -175z"/>
<path d="M4240 2735 l0 -355 350 0 350 0 0 355 0 355 -350 0 -350 0 0 -355z
m440 5 l0 -90 -90 0 -90 0 0 90 0 90 90 0 90 0 0 -90z"/>
<path d="M180 355 l0 -355 350 0 350 0 0 355 0 355 -350 0 -350 0 0 -355z
m440 -5 l0 -90 -90 0 -90 0 0 90 0 90 90 0 90 0 0 -90z"/>
<path d="M4240 355 l0 -355 350 0 350 0 0 355 0 355 -350 0 -350 0 0 -355z
m440 -5 l0 -90 -90 0 -90 0 0 90 0 90 90 0 90 0 0 -90z"/>
</g>
</svg>
